<svg width="900" height="300" viewBox="0 0 900 300" xmlns="http://www.w3.org/2000/svg">
  <defs>
    <!-- Background gradient -->
    <linearGradient id="bg" x1="0%" y1="0%" x2="100%" y2="100%">
      <stop offset="0%" style="stop-color:#0a0a14"/>
      <stop offset="50%" style="stop-color:#0d0d1f"/>
      <stop offset="100%" style="stop-color:#080813"/>
    </linearGradient>

    <!-- Neon glow filters -->
    <filter id="glow-cyan" x="-40%" y="-40%" width="180%" height="180%">
      <feGaussianBlur stdDeviation="4" result="blur"/>
      <feMerge><feMergeNode in="blur"/><feMergeNode in="SourceGraphic"/></feMerge>
    </filter>
    <filter id="glow-yellow" x="-40%" y="-40%" width="180%" height="180%">
      <feGaussianBlur stdDeviation="5" result="blur"/>
      <feMerge><feMergeNode in="blur"/><feMergeNode in="SourceGraphic"/></feMerge>
    </filter>
    <filter id="glow-pink" x="-40%" y="-40%" width="180%" height="180%">
      <feGaussianBlur stdDeviation="6" result="blur"/>
      <feMerge><feMergeNode in="blur"/><feMergeNode in="SourceGraphic"/></feMerge>
    </filter>
    <filter id="glow-soft" x="-20%" y="-20%" width="140%" height="140%">
      <feGaussianBlur stdDeviation="2" result="blur"/>
      <feMerge><feMergeNode in="blur"/><feMergeNode in="SourceGraphic"/></feMerge>
    </filter>
    <filter id="text-glow" x="-10%" y="-30%" width="120%" height="160%">
      <feGaussianBlur stdDeviation="8" result="blur"/>
      <feMerge><feMergeNode in="blur"/><feMergeNode in="SourceGraphic"/></feMerge>
    </filter>

    <!-- Card gradient -->
    <linearGradient id="card-bb" x1="0%" y1="0%" x2="100%" y2="100%">
      <stop offset="0%" style="stop-color:#1a1a2e"/>
      <stop offset="100%" style="stop-color:#16213e"/>
    </linearGradient>
    <linearGradient id="card-ms" x1="0%" y1="0%" x2="100%" y2="100%">
      <stop offset="0%" style="stop-color:#1a2a1a"/>
      <stop offset="100%" style="stop-color:#162416"/>
    </linearGradient>
    <linearGradient id="card-2048" x1="0%" y1="0%" x2="100%" y2="100%">
      <stop offset="0%" style="stop-color:#2a1a1a"/>
      <stop offset="100%" style="stop-color:#241616"/>
    </linearGradient>
    <linearGradient id="card-mem" x1="0%" y1="0%" x2="100%" y2="100%">
      <stop offset="0%" style="stop-color:#2a1a2a"/>
      <stop offset="100%" style="stop-color:#1e1424"/>
    </linearGradient>

    <!-- Scanlines pattern -->
    <pattern id="scanlines" x="0" y="0" width="1" height="3" patternUnits="userSpaceOnUse">
      <rect x="0" y="0" width="1" height="1" fill="rgba(255,255,255,0.015)"/>
    </pattern>

    <!-- Grid pattern -->
    <pattern id="grid" x="0" y="0" width="30" height="30" patternUnits="userSpaceOnUse">
      <path d="M 30 0 L 0 0 0 30" fill="none" stroke="rgba(80,80,160,0.08)" stroke-width="0.5"/>
    </pattern>

    <!-- Noise overlay -->
    <filter id="noise">
      <feTurbulence type="fractalNoise" baseFrequency="0.65" numOctaves="3" stitchTiles="stitch"/>
      <feColorMatrix type="saturate" values="0"/>
      <feBlend in="SourceGraphic" mode="overlay" result="blend"/>
      <feComposite in="blend" in2="SourceGraphic"/>
    </filter>
  </defs>

  <!-- Background -->
  <rect width="900" height="300" fill="url(#bg)"/>
  <rect width="900" height="300" fill="url(#grid)"/>
  <rect width="900" height="300" fill="url(#scanlines)"/>

  <!-- Ambient glow orbs -->
  <ellipse cx="180" cy="150" rx="120" ry="80" fill="rgba(0,220,255,0.04)"/>
  <ellipse cx="720" cy="150" rx="100" ry="70" fill="rgba(180,0,255,0.05)"/>
  <ellipse cx="450" cy="150" rx="160" ry="60" fill="rgba(255,60,120,0.03)"/>

  <!-- Top border line with glow -->
  <line x1="0" y1="1" x2="900" y2="1" stroke="#00dcff" stroke-width="1.5" opacity="0.6" filter="url(#glow-cyan)"/>
  <!-- Bottom border line -->
  <line x1="0" y1="299" x2="900" y2="299" stroke="#00dcff" stroke-width="1.5" opacity="0.6" filter="url(#glow-cyan)"/>

  <!-- Corner decorations -->
  <path d="M 0 0 L 28 0 L 28 4 L 4 4 L 4 28 L 0 28 Z" fill="#00dcff" opacity="0.7"/>
  <path d="M 900 0 L 872 0 L 872 4 L 896 4 L 896 28 L 900 28 Z" fill="#00dcff" opacity="0.7"/>
  <path d="M 0 300 L 28 300 L 28 296 L 4 296 L 4 272 L 0 272 Z" fill="#00dcff" opacity="0.7"/>
  <path d="M 900 300 L 872 300 L 872 296 L 896 296 L 896 272 L 900 272 Z" fill="#00dcff" opacity="0.7"/>

  <!-- ══════════════════════════════════════ -->
  <!-- LEFT SECTION: Title + subtitle        -->
  <!-- ══════════════════════════════════════ -->

  <!-- Gamepad icon area -->
  <text x="48" y="82" font-family="serif" font-size="38" text-anchor="middle" fill="#00dcff" filter="url(#glow-cyan)" opacity="0.9">🎮</text>

  <!-- Main title TET -->
  <text x="48" y="130" font-family="'Courier New', monospace" font-size="64" font-weight="900" text-anchor="middle" letter-spacing="4"
        fill="none" stroke="#ff3c78" stroke-width="1" filter="url(#text-glow)" opacity="0.4">TET</text>
  <text x="48" y="130" font-family="'Courier New', monospace" font-size="64" font-weight="900" text-anchor="middle" letter-spacing="4"
        fill="#ffffff" filter="url(#glow-soft)">TET</text>

  <!-- Subtitle -->
  <text x="48" y="152" font-family="'Courier New', monospace" font-size="10" text-anchor="middle" letter-spacing="3"
        fill="#00dcff" opacity="0.8">ИГРОВАЯ ПАНЕЛЬ</text>
  <text x="48" y="168" font-family="'Courier New', monospace" font-size="8" text-anchor="middle" letter-spacing="2"
        fill="#5a5a8a" opacity="0.9">FOR SILLYTAVERN</text>

  <!-- Version badge -->
  <rect x="10" y="180" width="76" height="18" rx="3" fill="none" stroke="#5a2a6a" stroke-width="1"/>
  <text x="48" y="193" font-family="'Courier New', monospace" font-size="9" text-anchor="middle" letter-spacing="2"
        fill="#c060f0" opacity="0.9">v 1.0.0</text>

  <!-- Vertical separator -->
  <line x1="100" y1="30" x2="100" y2="270" stroke="#1a1a3a" stroke-width="1.5"/>
  <line x1="101" y1="30" x2="101" y2="270" stroke="#00dcff" stroke-width="0.5" opacity="0.2"/>

  <!-- ══════════════════════════════════════ -->
  <!-- RIGHT SECTION: 4 Game Cards           -->
  <!-- ══════════════════════════════════════ -->

  <!-- CARD 1: Block Blast -->
  <g transform="translate(118, 26)">
    <rect width="182" height="114" rx="8" fill="url(#card-bb)" stroke="#1e3a6a" stroke-width="1.5"/>
    <rect width="182" height="114" rx="8" fill="none" stroke="#2060c0" stroke-width="0.5" opacity="0.5"/>
    <!-- Top accent line -->
    <line x1="8" y1="0" x2="174" y2="0" stroke="#2060c0" stroke-width="2" opacity="0.7"/>

    <!-- Mini block blast board visual -->
    <g transform="translate(16, 16)">
      <!-- 5x4 mini grid -->
      <g opacity="0.7">
        <!-- Row 1 -->
        <rect x="0"  y="0"  width="12" height="12" rx="1.5" fill="#e94560"/>
        <rect x="14" y="0"  width="12" height="12" rx="1.5" fill="#e94560"/>
        <rect x="28" y="0"  width="12" height="12" rx="1.5" fill="#1a2a4a"/>
        <rect x="42" y="0"  width="12" height="12" rx="1.5" fill="#1a2a4a"/>
        <rect x="56" y="0"  width="12" height="12" rx="1.5" fill="#4caf50"/>
        <!-- Row 2 -->
        <rect x="0"  y="14" width="12" height="12" rx="1.5" fill="#f5a623"/>
        <rect x="14" y="14" width="12" height="12" rx="1.5" fill="#e94560"/>
        <rect x="28" y="14" width="12" height="12" rx="1.5" fill="#2196f3"/>
        <rect x="42" y="14" width="12" height="12" rx="1.5" fill="#1a2a4a"/>
        <rect x="56" y="14" width="12" height="12" rx="1.5" fill="#4caf50"/>
        <!-- Row 3 -->
        <rect x="0"  y="28" width="12" height="12" rx="1.5" fill="#f5a623"/>
        <rect x="14" y="28" width="12" height="12" rx="1.5" fill="#9c27b0"/>
        <rect x="28" y="28" width="12" height="12" rx="1.5" fill="#2196f3"/>
        <rect x="42" y="28" width="12" height="12" rx="1.5" fill="#2196f3"/>
        <rect x="56" y="28" width="12" height="12" rx="1.5" fill="#4caf50"/>
        <!-- Row 4 — full row (about to clear) -->
        <rect x="0"  y="42" width="12" height="12" rx="1.5" fill="#ff5722" opacity="0.9"/>
        <rect x="14" y="42" width="12" height="12" rx="1.5" fill="#e91e63" opacity="0.9"/>
        <rect x="28" y="42" width="12" height="12" rx="1.5" fill="#f5a623" opacity="0.9"/>
        <rect x="42" y="42" width="12" height="12" rx="1.5" fill="#9c27b0" opacity="0.9"/>
        <rect x="56" y="42" width="12" height="12" rx="1.5" fill="#00bcd4" opacity="0.9"/>
        <!-- Clear flash effect on row 4 -->
        <rect x="0" y="42" width="70" height="12" rx="1.5" fill="rgba(255,255,255,0.12)"/>
      </g>
    </g>

    <!-- Game name -->
    <text x="108" y="30" font-family="'Courier New', monospace" font-size="13" font-weight="700" text-anchor="middle"
          fill="#ffffff">⬛ Block Blast</text>
    <text x="108" y="46" font-family="'Courier New', monospace" font-size="8" text-anchor="middle"
          fill="#4a6a9a" letter-spacing="1">PUZZLE</text>

    <!-- Score display -->
    <rect x="84" y="55" width="48" height="22" rx="4" fill="rgba(0,0,0,0.4)" stroke="#1e3a6a" stroke-width="1"/>
    <text x="108" y="64" font-family="'Courier New', monospace" font-size="7" text-anchor="middle" fill="#4a6a9a">SCORE</text>
    <text x="108" y="73" font-family="'Courier New', monospace" font-size="10" font-weight="700" text-anchor="middle" fill="#2060c0">8×8</text>

    <!-- Tags -->
    <rect x="84" y="84" width="48" height="16" rx="3" fill="rgba(32,96,192,0.15)" stroke="#1e3a6a" stroke-width="0.5"/>
    <text x="108" y="95" font-family="'Courier New', monospace" font-size="8" text-anchor="middle" fill="#4080d0">DRAG &amp; DROP</text>
  </g>

  <!-- CARD 2: Minesweeper -->
  <g transform="translate(312, 26)">
    <rect width="182" height="114" rx="8" fill="url(#card-ms)" stroke="#1a3a1a" stroke-width="1.5"/>
    <rect width="182" height="114" rx="8" fill="none" stroke="#2a7a2a" stroke-width="0.5" opacity="0.5"/>
    <line x1="8" y1="0" x2="174" y2="0" stroke="#2a7a2a" stroke-width="2" opacity="0.7"/>

    <!-- Mini minesweeper grid -->
    <g transform="translate(12, 14)">
      <g opacity="0.85">
        <!-- Revealed cells -->
        <rect x="0"  y="0"  width="11" height="11" rx="1" fill="#1e3a1e"/>
        <text x="5.5" y="9" font-family="monospace" font-size="8" text-anchor="middle" fill="#4caf50">1</text>
        <rect x="13" y="0"  width="11" height="11" rx="1" fill="#1e3a1e"/>
        <text x="18.5" y="9" font-family="monospace" font-size="8" text-anchor="middle" fill="#2196f3">2</text>
        <rect x="26" y="0"  width="11" height="11" rx="1" fill="#1e3a1e"/>
        <text x="31.5" y="9" font-family="monospace" font-size="8" text-anchor="middle" fill="#2196f3">2</text>
        <rect x="39" y="0"  width="11" height="11" rx="1" fill="#2a1a1a"/>
        <text x="44.5" y="9" font-family="monospace" font-size="8" text-anchor="middle" fill="#ff4444">💥</text>
        <!-- Row 2 -->
        <rect x="0"  y="13" width="11" height="11" rx="1" fill="#1e3a1e"/>
        <rect x="13" y="13" width="11" height="11" rx="1" fill="#0e2a0e" stroke="#2a4a2a" stroke-width="0.5"/>
        <rect x="26" y="13" width="11" height="11" rx="1" fill="#0e2a0e" stroke="#2a4a2a" stroke-width="0.5"/>
        <text x="31.5" y="22" font-family="monospace" font-size="8" text-anchor="middle" fill="#4caf50">🚩</text>
        <rect x="39" y="13" width="11" height="11" rx="1" fill="#0e2a0e" stroke="#2a4a2a" stroke-width="0.5"/>
        <!-- Row 3 -->
        <rect x="0"  y="26" width="11" height="11" rx="1" fill="#0e2a0e" stroke="#2a4a2a" stroke-width="0.5"/>
        <rect x="13" y="26" width="11" height="11" rx="1" fill="#0e2a0e" stroke="#2a4a2a" stroke-width="0.5"/>
        <rect x="26" y="26" width="11" height="11" rx="1" fill="#0e2a0e" stroke="#2a4a2a" stroke-width="0.5"/>
        <text x="31.5" y="35" font-family="monospace" font-size="8" text-anchor="middle" fill="#4caf50">🚩</text>
        <rect x="39" y="26" width="11" height="11" rx="1" fill="#0e2a0e" stroke="#2a4a2a" stroke-width="0.5"/>
        <!-- Row 4 -->
        <rect x="0"  y="39" width="11" height="11" rx="1" fill="#0e2a0e" stroke="#2a4a2a" stroke-width="0.5"/>
        <rect x="13" y="39" width="11" height="11" rx="1" fill="#0e2a0e" stroke="#2a4a2a" stroke-width="0.5"/>
        <rect x="26" y="39" width="11" height="11" rx="1" fill="#0e2a0e" stroke="#2a4a2a" stroke-width="0.5"/>
        <rect x="39" y="39" width="11" height="11" rx="1" fill="#0e2a0e" stroke="#2a4a2a" stroke-width="0.5"/>
      </g>
    </g>

    <!-- Game name -->
    <text x="120" y="26" font-family="'Courier New', monospace" font-size="13" font-weight="700" text-anchor="middle"
          fill="#ffffff">💣 Сапёр</text>
    <text x="120" y="42" font-family="'Courier New', monospace" font-size="8" text-anchor="middle"
          fill="#2a7a2a" letter-spacing="1">MINESWEEPER</text>

    <!-- Difficulty badges -->
    <rect x="82" y="52" width="32" height="14" rx="3" fill="rgba(0,200,0,0.12)" stroke="#1a5a1a" stroke-width="0.5"/>
    <text x="98" y="62" font-family="'Courier New', monospace" font-size="7.5" text-anchor="middle" fill="#4caf50">EASY</text>
    <rect x="118" y="52" width="32" height="14" rx="3" fill="rgba(255,160,0,0.12)" stroke="#5a3a00" stroke-width="0.5"/>
    <text x="134" y="62" font-family="'Courier New', monospace" font-size="7.5" text-anchor="middle" fill="#f5a623">MED</text>
    <rect x="82" y="70" width="68" height="14" rx="3" fill="rgba(255,60,60,0.12)" stroke="#5a1a1a" stroke-width="0.5"/>
    <text x="116" y="80" font-family="'Courier New', monospace" font-size="7.5" text-anchor="middle" fill="#e94560">HARD</text>

    <!-- Timer display -->
    <rect x="82" y="89" width="68" height="16" rx="3" fill="rgba(0,0,0,0.3)" stroke="#1a3a1a" stroke-width="0.5"/>
    <text x="116" y="100" font-family="'Courier New', monospace" font-size="8" text-anchor="middle" fill="#2a6a2a">⏱ ТАЙМЕР</text>
  </g>

  <!-- CARD 3: 2048 -->
  <g transform="translate(118, 158)">
    <rect width="182" height="114" rx="8" fill="url(#card-2048)" stroke="#3a1a1a" stroke-width="1.5"/>
    <rect width="182" height="114" rx="8" fill="none" stroke="#8a3a1a" stroke-width="0.5" opacity="0.5"/>
    <line x1="8" y1="0" x2="174" y2="0" stroke="#c05020" stroke-width="2" opacity="0.7"/>

    <!-- 2048 mini grid -->
    <g transform="translate(12, 14)" opacity="0.9">
      <!-- 4x4 grid -->
      <rect x="0"  y="0"  width="22" height="22" rx="2" fill="#3a2010"/>
      <text x="11" y="15" font-family="monospace" font-size="10" font-weight="700" text-anchor="middle" fill="#8B4513">2</text>
      <rect x="25" y="0"  width="22" height="22" rx="2" fill="#4a2810"/>
      <text x="36" y="15" font-family="monospace" font-size="10" font-weight="700" text-anchor="middle" fill="#cd8b3a">4</text>
      <rect x="50" y="0"  width="22" height="22" rx="2" fill="#6a3010"/>
      <text x="61" y="15" font-family="monospace" font-size="9" font-weight="700" text-anchor="middle" fill="#e09040">16</text>
      <rect x="0"  y="25" width="22" height="22" rx="2" fill="#7a3810"/>
      <text x="11" y="40" font-family="monospace" font-size="9" font-weight="700" text-anchor="middle" fill="#eba855">32</text>
      <rect x="25" y="25" width="22" height="22" rx="2" fill="#8a4010"/>
      <text x="36" y="40" font-family="monospace" font-size="9" font-weight="700" text-anchor="middle" fill="#f0b860">64</text>
      <rect x="50" y="25" width="22" height="22" rx="2" fill="#aa5010"/>
      <text x="61" y="40" font-family="monospace" font-size="8" font-weight="700" text-anchor="middle" fill="#f5c870">128</text>
      <rect x="0"  y="50" width="22" height="22" rx="2" fill="#ca6010"/>
      <text x="11" y="65" font-family="monospace" font-size="8" font-weight="700" text-anchor="middle" fill="#fad070">256</text>
      <rect x="25" y="50" width="22" height="22" rx="2" fill="#e07020"/>
      <text x="36" y="65" font-family="monospace" font-size="8" font-weight="700" text-anchor="middle" fill="#ffe070">512</text>
      <!-- 2048 tile highlighted -->
      <rect x="50" y="50" width="22" height="22" rx="2" fill="#ff8c00"/>
      <text x="61" y="63" font-family="monospace" font-size="7" font-weight="900" text-anchor="middle" fill="#fff8e0">2048</text>
      <!-- Glow on 2048 tile -->
      <rect x="50" y="50" width="22" height="22" rx="2" fill="none" stroke="#ffcc00" stroke-width="1.5" opacity="0.8"/>
    </g>

    <!-- Game name -->
    <text x="120" y="26" font-family="'Courier New', monospace" font-size="16" font-weight="900" text-anchor="middle"
          fill="#ff8c00" filter="url(#glow-yellow)">2048</text>
    <text x="120" y="42" font-family="'Courier New', monospace" font-size="8" text-anchor="middle"
          fill="#8a3a1a" letter-spacing="1">PUZZLE</text>

    <!-- Swipe hint -->
    <text x="120" y="62" font-family="'Courier New', monospace" font-size="20" text-anchor="middle" fill="#c05020" opacity="0.6">⟵⟶</text>
    <text x="120" y="80" font-family="'Courier New', monospace" font-size="20" text-anchor="middle" fill="#c05020" opacity="0.4">⟵⟶</text>

    <rect x="84" y="84" width="72" height="14" rx="3" fill="rgba(192,80,0,0.15)" stroke="#5a2800" stroke-width="0.5"/>
    <text x="120" y="94" font-family="'Courier New', monospace" font-size="8" text-anchor="middle" fill="#c05020">SWIPE CONTROL</text>
  </g>

  <!-- CARD 4: Memory -->
  <g transform="translate(312, 158)">
    <rect width="182" height="114" rx="8" fill="url(#card-mem)" stroke="#3a1a4a" stroke-width="1.5"/>
    <rect width="182" height="114" rx="8" fill="none" stroke="#7a3aaa" stroke-width="0.5" opacity="0.5"/>
    <line x1="8" y1="0" x2="174" y2="0" stroke="#9040d0" stroke-width="2" opacity="0.7"/>

    <!-- Mini tarot card grid -->
    <g transform="translate(10, 10)" opacity="0.95">
      <!-- 2x4 mini card grid -->
      <!-- Row 1 -->
      <rect x="0"  y="0"  width="16" height="22" rx="2" fill="#2a1a3a" stroke="#5a3a7a" stroke-width="1"/>
      <rect x="4"  y="3"  width="8"  height="10" rx="1" fill="#3a1a4a"/>
      <text x="8" y="19" font-family="serif" font-size="6" text-anchor="middle" fill="#8a6aaa">☽</text>
      <rect x="19" y="0"  width="16" height="22" rx="2" fill="#2a1a3a" stroke="#5a3a7a" stroke-width="1"/>
      <rect x="23" y="3"  width="8"  height="10" rx="1" fill="#1a2a3a"/>
      <text x="27" y="19" font-family="serif" font-size="6" text-anchor="middle" fill="#6a8aaa">☀</text>
      <rect x="38" y="0"  width="16" height="22" rx="2" fill="#3a2a1a" stroke="#7a5a2a" stroke-width="1"/>
      <rect x="42" y="3"  width="8"  height="10" rx="1" fill="#2a1a0a"/>
      <text x="46" y="19" font-family="serif" font-size="6" text-anchor="middle" fill="#aa8a4a">★</text>
      <rect x="57" y="0"  width="16" height="22" rx="2" fill="#1a2a1a" stroke="#2a6a2a" stroke-width="1"/>
      <rect x="61" y="3"  width="8"  height="10" rx="1" fill="#0a2a0a"/>
      <text x="65" y="19" font-family="serif" font-size="6" text-anchor="middle" fill="#4a9a4a">♦</text>
      <!-- Row 2 — matched pair highlighted -->
      <rect x="0"  y="26" width="16" height="22" rx="2" fill="#3a1a2a" stroke="#aa3060" stroke-width="1.2"/>
      <text x="8" y="40" font-family="serif" font-size="11" text-anchor="middle" fill="#cc4080">♦</text>
      <rect x="19" y="26" width="16" height="22" rx="2" fill="#2a1a3a" stroke="#5a3a7a" stroke-width="1"/>
      <rect x="23" y="29" width="8"  height="10" rx="1" fill="#1a0a2a"/>
      <text x="27" y="44" font-family="serif" font-size="6" text-anchor="middle" fill="#7a4aaa">✦</text>
      <rect x="38" y="26" width="16" height="22" rx="2" fill="#3a1a2a" stroke="#aa3060" stroke-width="1.2"/>
      <text x="46" y="40" font-family="serif" font-size="11" text-anchor="middle" fill="#cc4080">♦</text>
      <rect x="57" y="26" width="16" height="22" rx="2" fill="#2a1a3a" stroke="#5a3a7a" stroke-width="1"/>
      <rect x="61" y="29" width="8"  height="10" rx="1" fill="#1a0a2a"/>
      <text x="65" y="44" font-family="serif" font-size="6" text-anchor="middle" fill="#7a4aaa">✦</text>
      <!-- Match glow effect -->
      <rect x="0" y="26" width="16" height="22" rx="2" fill="rgba(180,40,100,0.15)"/>
      <rect x="38" y="26" width="16" height="22" rx="2" fill="rgba(180,40,100,0.15)"/>
    </g>

    <!-- Game name -->
    <text x="125" y="20" font-family="'Courier New', monospace" font-size="13" font-weight="700" text-anchor="middle"
          fill="#ffffff">🃏 Мемори</text>
    <text x="125" y="35" font-family="'Courier New', monospace" font-size="8" text-anchor="middle"
          fill="#7a3aaa" letter-spacing="1">TAROT CARDS</text>

    <!-- Level indicator -->
    <g transform="translate(90, 46)">
      <rect width="70" height="14" rx="3" fill="rgba(100,0,150,0.2)" stroke="#5a1a7a" stroke-width="0.5"/>
      <text x="35" y="10" font-family="'Courier New', monospace" font-size="8" text-anchor="middle" fill="#9040d0">4 УРОВНЯ</text>
    </g>
    <g transform="translate(90, 64)">
      <rect width="70" height="14" rx="3" fill="rgba(100,0,150,0.15)" stroke="#5a1a7a" stroke-width="0.5"/>
      <text x="35" y="10" font-family="'Courier New', monospace" font-size="8" text-anchor="middle" fill="#7030a0">18 КАРТ</text>
    </g>

    <!-- Timer -->
    <rect x="90" y="84" width="70" height="20" rx="4" fill="rgba(0,0,0,0.35)" stroke="#4a1a5a" stroke-width="1"/>
    <text x="125" y="90" font-family="'Courier New', monospace" font-size="7" text-anchor="middle" fill="#5a2a7a">ТАЙМЕР</text>
    <text x="125" y="100" font-family="'Courier New', monospace" font-size="9" font-weight="700" text-anchor="middle" fill="#9040d0">40–120с</text>
  </g>

  <!-- ══════════════════════════════════════ -->
  <!-- DIVIDERS BETWEEN CARDS               -->
  <!-- ══════════════════════════════════════ -->
  <!-- Horizontal divider between rows -->
  <line x1="118" y1="148" x2="494" y2="148" stroke="#1a1a3a" stroke-width="1.5"/>
  <!-- Vertical divider between columns -->
  <line x1="304" y1="26" x2="304" y2="272" stroke="#1a1a3a" stroke-width="1.5"/>

  <!-- ══════════════════════════════════════ -->
  <!-- FAR RIGHT SECTION: Features           -->
  <!-- ══════════════════════════════════════ -->

  <!-- Right separator -->
  <line x1="506" y1="30" x2="506" y2="270" stroke="#1a1a3a" stroke-width="1.5"/>
  <line x1="507" y1="30" x2="507" y2="270" stroke="#00dcff" stroke-width="0.5" opacity="0.2"/>

  <!-- Features label -->
  <text x="702" y="48" font-family="'Courier New', monospace" font-size="9" text-anchor="middle" letter-spacing="3"
        fill="#3a3a6a">✦ ВОЗМОЖНОСТИ ✦</text>
  <line x1="524" y1="56" x2="880" y2="56" stroke="#1a1a3a" stroke-width="1"/>

  <!-- Feature items -->
  <g font-family="'Courier New', monospace" font-size="11">
    <!-- Feature 1 -->
    <text x="530" y="80" fill="#00dcff" filter="url(#glow-soft)">›</text>
    <text x="546" y="80" fill="#c0c0e0">Плавающая кнопка 🎮</text>
    <text x="546" y="93" fill="#4a4a6a" font-size="9">перетаскивай куда хочешь</text>

    <!-- Feature 2 -->
    <text x="530" y="114" fill="#00dcff" filter="url(#glow-soft)">›</text>
    <text x="546" y="114" fill="#c0c0e0">Одиночный клик — игра</text>
    <text x="546" y="127" fill="#4a4a6a" font-size="9">двойной — выбор игры</text>

    <!-- Feature 3 -->
    <text x="530" y="148" fill="#00dcff" filter="url(#glow-soft)">›</text>
    <text x="546" y="148" fill="#c0c0e0">Рекорды сохраняются</text>
    <text x="546" y="161" fill="#4a4a6a" font-size="9">localStorage между сессиями</text>

    <!-- Feature 4 -->
    <text x="530" y="182" fill="#00dcff" filter="url(#glow-soft)">›</text>
    <text x="546" y="182" fill="#c0c0e0">Мобильная поддержка</text>
    <text x="546" y="195" fill="#4a4a6a" font-size="9">свайпы и тач-управление</text>

    <!-- Feature 5 -->
    <text x="530" y="216" fill="#00dcff" filter="url(#glow-soft)">›</text>
    <text x="546" y="216" fill="#c0c0e0">Работает во время чата</text>
    <text x="546" y="229" fill="#4a4a6a" font-size="9">не мешает генерации ИИ</text>
  </g>

  <!-- ══════════════════════════════════════ -->
  <!-- NEON ACCENT DOTS (decorative)         -->
  <!-- ══════════════════════════════════════ -->
  <circle cx="506" cy="150" r="3" fill="#00dcff" opacity="0.6" filter="url(#glow-cyan)"/>
  <circle cx="100" cy="150" r="3" fill="#00dcff" opacity="0.6" filter="url(#glow-cyan)"/>

  <!-- Pixel stars decoration -->
  <rect x="510" y="32" width="2" height="2" fill="#00dcff" opacity="0.4"/>
  <rect x="516" y="40" width="2" height="2" fill="#c060f0" opacity="0.4"/>
  <rect x="520" y="30" width="2" height="2" fill="#ff3c78" opacity="0.4"/>
  <rect x="876" y="260" width="2" height="2" fill="#00dcff" opacity="0.4"/>
  <rect x="870" y="266" width="2" height="2" fill="#c060f0" opacity="0.3"/>

</svg>
